<?xml version="1.0" encoding="UTF-8"?>
<!DOCTYPE svg PUBLIC "-//W3C//DTD SVG 1.1//EN" "http://www.w3.org/Graphics/SVG/1.1/DTD/svg11.dtd">
<svg xmlns="http://www.w3.org/2000/svg" version="1.1" width="500px" height="500px" style="shape-rendering:geometricPrecision; text-rendering:geometricPrecision; image-rendering:optimizeQuality; fill-rule:evenodd; clip-rule:evenodd" xmlns:xlink="http://www.w3.org/1999/xlink">
<g><path style="opacity:1" fill="#062424" d="M -0.5,-0.5 C 166.167,-0.5 332.833,-0.5 499.5,-0.5C 499.5,166.167 499.5,332.833 499.5,499.5C 332.833,499.5 166.167,499.5 -0.5,499.5C -0.5,332.833 -0.5,166.167 -0.5,-0.5 Z"/></g>
<g><path style="opacity:1" fill="#eff1f1" d="M 239.5,139.5 C 243.828,139.037 247.828,139.87 251.5,142C 250.845,143.487 249.845,144.653 248.5,145.5C 241.087,141.957 237.587,144.29 238,152.5C 240.21,155.29 243.044,156.123 246.5,155C 247.406,153.301 247.739,151.467 247.5,149.5C 249.167,149.5 250.833,149.5 252.5,149.5C 252.813,152.247 252.48,154.914 251.5,157.5C 238.86,163.351 232.694,159.351 233,145.5C 234.914,143.144 237.081,141.144 239.5,139.5 Z"/></g>
<g><path style="opacity:1" fill="#eef0f0" d="M 259.5,139.5 C 261.167,139.5 262.833,139.5 264.5,139.5C 263.772,145.078 263.772,150.578 264.5,156C 266.769,156.758 268.936,156.591 271,155.5C 271.796,150.948 272.629,146.448 273.5,142C 275.695,141.288 277.362,141.955 278.5,144C 277.885,148.977 276.719,153.81 275,158.5C 271.662,161.318 267.829,162.151 263.5,161C 261.43,160.052 259.93,158.552 259,156.5C 258.374,150.805 258.541,145.138 259.5,139.5 Z"/></g>
<g><path style="opacity:1" fill="#f0f2f2" d="M 214.5,143.5 C 225.016,141.995 228.349,145.995 224.5,155.5C 225.982,157.483 227.649,159.316 229.5,161C 225.814,163.438 222.814,162.772 220.5,159C 219.207,158.51 217.873,158.343 216.5,158.5C 217.231,160.599 217.231,162.599 216.5,164.5C 215.109,165.645 213.776,165.645 212.5,164.5C 210.36,158.273 208.693,151.939 207.5,145.5C 210.067,145.279 212.401,144.612 214.5,143.5 Z"/></g>
<g><path style="opacity:1" fill="#edefef" d="M 287.5,144.5 C 292.285,146.762 297.285,148.428 302.5,149.5C 302.915,151.948 301.915,153.281 299.5,153.5C 296.838,152.503 294.172,151.503 291.5,150.5C 289.862,151.705 289.529,153.038 290.5,154.5C 293.057,155.407 295.557,156.407 298,157.5C 298.388,159.076 297.888,160.409 296.5,161.5C 293.686,159.895 290.686,158.895 287.5,158.5C 287.238,159.978 287.571,161.311 288.5,162.5C 291.057,163.407 293.557,164.407 296,165.5C 296.49,166.793 296.657,168.127 296.5,169.5C 290.744,168.197 285.41,166.03 280.5,163C 282.743,156.766 285.077,150.599 287.5,144.5 Z"/></g>
<g><path style="opacity:1" fill="#112d2d" d="M 215.5,147.5 C 220.295,146.859 221.961,148.693 220.5,153C 218.655,154.128 216.655,154.628 214.5,154.5C 214.643,152.738 214.309,151.071 213.5,149.5C 214.243,148.818 214.909,148.151 215.5,147.5 Z"/></g>
<g><path style="opacity:1" fill="#f0f2f2" d="M 197.5,149.5 C 202.504,154.846 204.671,161.179 204,168.5C 199.24,174.228 193.907,174.895 188,170.5C 186.03,166.727 184.197,162.894 182.5,159C 183.059,156.812 184.393,156.146 186.5,157C 188.833,160.667 191.167,164.333 193.5,168C 198.667,169.5 200.5,167.667 199,162.5C 197.364,159.394 195.864,156.227 194.5,153C 195.071,151.401 196.071,150.234 197.5,149.5 Z"/></g>
<g><path style="opacity:1" fill="#eff1f1" d="M 309.5,156.5 C 315.691,156.198 320.358,158.698 323.5,164C 322.034,164.635 320.7,165.469 319.5,166.5C 317.957,163.61 315.624,161.943 312.5,161.5C 314.329,164.857 315.996,168.357 317.5,172C 316.458,177.023 313.458,178.69 308.5,177C 305.154,174.988 302.488,172.321 300.5,169C 301.098,167.699 302.098,166.865 303.5,166.5C 305.04,168.387 306.707,170.22 308.5,172C 309.944,172.781 311.277,172.614 312.5,171.5C 310.667,169.167 308.833,166.833 307,164.5C 306.018,161.225 306.851,158.559 309.5,156.5 Z"/></g>
<g><path style="opacity:1" fill="#f0f2f2" d="M 170.5,165.5 C 176.472,164.309 178.805,166.476 177.5,172C 182.794,171.959 185.294,174.459 185,179.5C 181.61,183.393 177.777,186.727 173.5,189.5C 169.355,184.187 165.021,179.02 160.5,174C 164.025,171.302 167.358,168.469 170.5,165.5 Z"/></g>
<g><path style="opacity:1" fill="#193333" d="M 170.5,170.5 C 172.346,170.222 173.68,170.889 174.5,172.5C 172.206,176.565 169.873,176.899 167.5,173.5C 168.77,172.712 169.77,171.712 170.5,170.5 Z"/></g>
<g><path style="opacity:1" fill="#eff1f1" d="M 334.5,171.5 C 336.934,172.099 338.601,173.599 339.5,176C 337.579,182.769 335.079,189.269 332,195.5C 330.702,194.44 329.535,193.274 328.5,192C 329.547,190.422 329.547,188.922 328.5,187.5C 327.019,186.52 325.685,185.353 324.5,184C 320.766,185.422 317.766,184.422 315.5,181C 322.069,178.102 328.402,174.935 334.5,171.5 Z"/></g>
<g><path style="opacity:1" fill="#102c2c" d="M 175.5,176.5 C 176.833,176.5 178.167,176.5 179.5,176.5C 179.67,179.491 178.337,181.491 175.5,182.5C 174.354,181.855 173.354,181.022 172.5,180C 173.71,178.961 174.71,177.794 175.5,176.5 Z"/></g>
<g><path style="opacity:1" fill="#1c3636" d="M 332.5,177.5 C 333.239,177.369 333.906,177.536 334.5,178C 333.33,180.185 332.164,182.351 331,184.5C 329.833,183.333 328.667,182.167 327.5,181C 329.233,179.811 330.9,178.644 332.5,177.5 Z"/></g>
<g><path style="opacity:1" fill="#eef0f0" d="M 153.5,180.5 C 158.842,184.836 164.175,189.169 169.5,193.5C 168.833,194.833 167.833,195.833 166.5,196.5C 163.391,194.525 160.557,192.192 158,189.5C 159.402,193.34 160.569,197.34 161.5,201.5C 157.416,201.044 153.416,200.544 149.5,200C 152.333,202.167 155.167,204.333 158,206.5C 158.309,208.391 157.475,209.725 155.5,210.5C 149.985,206.575 144.652,202.408 139.5,198C 141.022,196.478 142.522,194.978 144,193.5C 147.528,194.423 151.028,195.423 154.5,196.5C 154.833,196.167 155.167,195.833 155.5,195.5C 153.697,192.061 152.03,188.561 150.5,185C 151.315,183.357 152.315,181.857 153.5,180.5 Z"/></g>
<g><path style="opacity:1" fill="#eef0f0" d="M 350.5,186.5 C 352.101,187.519 353.101,189.019 353.5,191C 352.064,195.141 350.731,199.308 349.5,203.5C 350.002,204.521 350.668,204.688 351.5,204C 353.911,202.045 356.411,200.211 359,198.5C 360.022,199.354 360.855,200.354 361.5,201.5C 356.987,206.34 351.82,210.34 346,213.5C 344.167,213 343,211.833 342.5,210C 344.312,205.581 345.479,201.081 346,196.5C 343.305,198.694 340.472,200.694 337.5,202.5C 336.618,201.24 335.618,200.074 334.5,199C 340.02,194.97 345.353,190.803 350.5,186.5 Z"/></g>
<g><path style="opacity:1" fill="#eaeded" d="M 295.5,278.5 C 294.711,278.783 294.044,279.283 293.5,280C 297.821,280.499 302.154,280.666 306.5,280.5C 310.641,281.809 312.641,284.643 312.5,289C 312.452,295.431 309.785,300.431 304.5,304C 285.883,305.141 267.216,305.641 248.5,305.5C 231.167,305.333 213.833,305.167 196.5,305C 187.823,300.81 184.657,293.976 187,284.5C 187.792,282.356 189.292,281.023 191.5,280.5C 196.179,280.666 200.845,280.499 205.5,280C 204.473,279.487 203.473,278.987 202.5,278.5C 193.62,273.723 189.12,266.389 189,256.5C 189.5,255.333 190.333,254.5 191.5,254C 197.231,253.79 202.897,253.124 208.5,252C 210.093,251.051 211.426,249.885 212.5,248.5C 213.043,248.44 213.376,248.107 213.5,247.5C 206.532,246.503 199.532,246.17 192.5,246.5C 189.852,246.262 188.018,244.928 187,242.5C 185.238,232.455 187.904,223.788 195,216.5C 215.138,199.671 238.304,193.505 264.5,198C 281.579,200.122 295.746,207.622 307,220.5C 311.56,226.84 313.227,233.84 312,241.5C 311.215,243.286 310.049,244.786 308.5,246C 300.938,247.267 293.271,247.934 285.5,248C 287.305,250.403 289.638,252.07 292.5,253C 313.175,252.446 316.175,259.78 301.5,275C 299.595,276.421 297.595,277.588 295.5,278.5 Z"/></g>
<g><path style="opacity:1" fill="#082525" d="M 235.5,201.5 C 258.693,198.41 279.693,203.577 298.5,217C 305.919,223.65 308.919,231.816 307.5,241.5C 298.518,242.665 289.518,242.832 280.5,242C 271.827,230.786 261.327,228.619 249,235.5C 236.946,228.56 226.779,230.726 218.5,242C 209.5,242.667 200.5,242.667 191.5,242C 189.678,231.48 193.012,222.813 201.5,216C 211.842,208.658 223.175,203.824 235.5,201.5 Z"/></g>
<g><path style="opacity:1" fill="#dce0e0" d="M 241.5,203.5 C 242.833,203.5 244.167,203.5 245.5,203.5C 245.778,205.346 245.111,206.68 243.5,207.5C 241.889,206.68 241.222,205.346 241.5,203.5 Z"/></g>
<g><path style="opacity:1" fill="#f1f3f3" d="M 264.5,207.5 C 267.861,208.203 268.194,209.537 265.5,211.5C 263.358,210.563 263.024,209.23 264.5,207.5 Z"/></g>
<g><path style="opacity:1" fill="#f2f3f3" d="M 131.5,212.5 C 139.153,213.097 146.82,213.597 154.5,214C 153.308,217.192 150.975,219.025 147.5,219.5C 144.391,222.901 144.058,226.401 146.5,230C 146.22,231.395 145.553,232.562 144.5,233.5C 139.843,228.675 135.343,223.675 131,218.5C 130.51,216.455 130.677,214.455 131.5,212.5 Z"/></g>
<g><path style="opacity:1" fill="#dce0e0" d="M 216.5,212.5 C 218.912,212.694 219.912,214.027 219.5,216.5C 218.167,216.5 216.833,216.5 215.5,216.5C 215.433,215.041 215.766,213.708 216.5,212.5 Z"/></g>
<g><path style="opacity:1" fill="#dce1e1" d="M 281.5,213.5 C 283.346,213.222 284.68,213.889 285.5,215.5C 284.68,217.111 283.346,217.778 281.5,217.5C 281.5,216.167 281.5,214.833 281.5,213.5 Z"/></g>
<g><path style="opacity:1" fill="#eceeee" d="M 347.5,216.5 C 354.841,216.334 362.174,216.5 369.5,217C 370.26,218.441 370.926,219.941 371.5,221.5C 366.472,226.86 361.472,232.193 356.5,237.5C 355.304,236.441 354.637,235.107 354.5,233.5C 355.845,231.677 356.345,229.677 356,227.5C 355.325,223.102 352.825,221.102 348.5,221.5C 348.371,219.784 348.038,218.117 347.5,216.5 Z"/></g>
<g><path style="opacity:1" fill="#163131" d="M 136.5,218.5 C 138.693,217.203 141.027,217.203 143.5,218.5C 142.917,220.002 142.084,221.335 141,222.5C 139.629,220.959 138.129,219.625 136.5,218.5 Z"/></g>
<g><path style="opacity:1" fill="#cdd3d3" d="M 235.5,219.5 C 238.956,220.536 239.29,222.203 236.5,224.5C 234.296,223.218 233.962,221.551 235.5,219.5 Z"/></g>
<g><path style="opacity:1" fill="#102c2b" d="M 357.5,222.5 C 359.693,221.203 362.027,221.203 364.5,222.5C 362.851,223.648 361.351,224.981 360,226.5C 359.392,224.934 358.558,223.6 357.5,222.5 Z"/></g>
<g><path style="opacity:1" fill="#d7dcdc" d="M 205.5,228.5 C 207.346,228.222 208.68,228.889 209.5,230.5C 208.68,232.111 207.346,232.778 205.5,232.5C 205.5,231.167 205.5,229.833 205.5,228.5 Z"/></g>
<g><path style="opacity:1" fill="#d8dddd" d="M 276.5,229.5 C 277.833,229.5 279.167,229.5 280.5,229.5C 280.778,231.346 280.111,232.68 278.5,233.5C 276.889,232.68 276.222,231.346 276.5,229.5 Z"/></g>
<g><path style="opacity:1" fill="#eceeee" d="M 123.5,233.5 C 130.128,234.716 136.795,235.716 143.5,236.5C 143.819,238.75 143.319,240.75 142,242.5C 139.618,241.446 137.118,240.779 134.5,240.5C 134.296,243.518 133.963,246.518 133.5,249.5C 135.591,249.318 137.591,249.652 139.5,250.5C 140.82,252.864 140.154,254.531 137.5,255.5C 132.167,254.333 126.833,253.167 121.5,252C 119.246,250.946 118.913,249.446 120.5,247.5C 123.446,246.679 126.446,246.679 129.5,247.5C 129.575,244.794 129.908,242.127 130.5,239.5C 127.833,239.167 125.167,238.833 122.5,238.5C 122.629,236.784 122.962,235.117 123.5,233.5 Z"/></g>
<g><path style="opacity:1" fill="#082626" d="M 233.5,235.5 C 239.579,235.247 244.745,237.247 249,241.5C 252.157,239.683 255.323,237.85 258.5,236C 264.284,235.261 269.284,236.928 273.5,241C 278.209,247.376 283.875,252.709 290.5,257C 295.489,257.499 300.489,257.666 305.5,257.5C 305.938,260.893 305.105,263.893 303,266.5C 293.099,278.243 280.932,281.41 266.5,276C 260.448,272.648 254.782,268.815 249.5,264.5C 243.522,269.619 236.856,273.786 229.5,277C 218.357,280.456 208.357,278.456 199.5,271C 195.233,267.481 193.233,263.148 193.5,258C 199.278,257.906 204.944,257.239 210.5,256C 216.15,250.419 221.816,244.752 227.5,239C 229.432,237.541 231.432,236.375 233.5,235.5 Z"/></g>
<g><path style="opacity:1" fill="#ecefee" d="M 369.5,237.5 C 372.652,236.959 375.152,237.959 377,240.5C 378.354,244.363 378.854,248.363 378.5,252.5C 376.833,252.5 375.167,252.5 373.5,252.5C 373.963,249.518 374.296,246.518 374.5,243.5C 373.178,243.33 372.011,243.663 371,244.5C 371.107,248.489 369.941,251.989 367.5,255C 361.949,256.462 358.782,254.295 358,248.5C 357.272,245.77 357.438,243.103 358.5,240.5C 360.167,239.167 361.833,239.167 363.5,240.5C 362.593,243.421 362.26,246.421 362.5,249.5C 363.822,249.67 364.989,249.337 366,248.5C 365.799,244.271 366.966,240.604 369.5,237.5 Z"/></g>
<g><path style="opacity:1" fill="#829191" d="M 192.5,246.5 C 199.532,246.17 206.532,246.503 213.5,247.5C 213.376,248.107 213.043,248.44 212.5,248.5C 205.833,247.833 199.167,247.167 192.5,246.5 Z"/></g>
<g><path style="opacity:1" fill="#0b2828" d="M 261.5,278.5 C 253.167,279.833 244.833,279.833 236.5,278.5C 240.983,276.091 245.316,273.424 249.5,270.5C 253.221,273.549 257.221,276.216 261.5,278.5 Z"/></g>
<g><path style="opacity:1" fill="#7b8b8b" d="M 202.5,278.5 C 203.473,278.987 204.473,279.487 205.5,280C 200.845,280.499 196.179,280.666 191.5,280.5C 195.167,279.833 198.833,279.167 202.5,278.5 Z"/></g>
<g><path style="opacity:1" fill="#839292" d="M 236.5,278.5 C 244.833,279.833 253.167,279.833 261.5,278.5C 262.473,278.987 263.473,279.487 264.5,280C 254.167,280.667 243.833,280.667 233.5,280C 234.527,279.487 235.527,278.987 236.5,278.5 Z"/></g>
<g><path style="opacity:1" fill="#859393" d="M 295.5,278.5 C 299.167,279.167 302.833,279.833 306.5,280.5C 302.154,280.666 297.821,280.499 293.5,280C 294.044,279.283 294.711,278.783 295.5,278.5 Z"/></g>
<g><path style="opacity:1" fill="#062424" d="M 191.5,284.5 C 230.168,284.333 268.835,284.5 307.5,285C 309.884,292.899 307.217,298.232 299.5,301C 265.5,301.667 231.5,301.667 197.5,301C 191.44,296.988 189.44,291.488 191.5,284.5 Z"/></g>
<g><path style="opacity:1" fill="#dee2e2" d="M 190.5,342.5 C 193.247,342.187 195.914,342.52 198.5,343.5C 196.604,344.466 194.604,344.799 192.5,344.5C 192.5,345.5 192.5,346.5 192.5,347.5C 199.167,347.833 199.167,348.167 192.5,348.5C 192.785,350.288 192.452,351.955 191.5,353.5C 190.511,349.893 190.177,346.226 190.5,342.5 Z"/></g>
<g><path style="opacity:1" fill="#e1e5e5" d="M 233.5,342.5 C 236.249,342.274 238.916,342.607 241.5,343.5C 244.368,346.995 244.035,350.162 240.5,353C 238.19,353.497 235.857,353.663 233.5,353.5C 233.5,349.833 233.5,346.167 233.5,342.5 Z"/></g>
<g><path style="opacity:1" fill="#d6dbdb" d="M 260.5,342.5 C 262.388,344.988 263.055,347.988 262.5,351.5C 264.288,351.215 265.955,351.548 267.5,352.5C 265.257,353.474 262.924,353.808 260.5,353.5C 260.5,349.833 260.5,346.167 260.5,342.5 Z"/></g>
<g><path style="opacity:1" fill="#dce0e0" d="M 300.5,342.5 C 303.247,342.187 305.914,342.52 308.5,343.5C 306.604,344.466 304.604,344.799 302.5,344.5C 302.5,345.5 302.5,346.5 302.5,347.5C 309.167,347.833 309.167,348.167 302.5,348.5C 302.5,349.5 302.5,350.5 302.5,351.5C 304.924,351.192 307.257,351.526 309.5,352.5C 306.572,353.484 303.572,353.817 300.5,353.5C 300.5,349.833 300.5,346.167 300.5,342.5 Z"/></g>
<g><path style="opacity:1" fill="#0d2929" d="M 235.5,344.5 C 241.158,343.679 242.825,345.846 240.5,351C 238.866,351.494 237.199,351.66 235.5,351.5C 235.5,349.167 235.5,346.833 235.5,344.5 Z"/></g>
<g><path style="opacity:1" fill="#dee2e2" d="M 204.5,342.5 C 210.83,341.666 213.663,344.333 213,350.5C 209.333,354.5 205.667,354.5 202,350.5C 201.018,347.225 201.851,344.559 204.5,342.5 Z"/></g>
<g><path style="opacity:1" fill="#102c2c" d="M 204.5,344.5 C 211.19,343.331 212.857,345.497 209.5,351C 204.262,351.594 202.595,349.427 204.5,344.5 Z"/></g>
<g><path style="opacity:1" fill="#dce1e1" d="M 219.5,342.5 C 226.163,341.333 228.997,343.999 228,350.5C 224.952,354.01 221.619,354.343 218,351.5C 215.788,348.021 216.288,345.021 219.5,342.5 Z"/></g>
<g><path style="opacity:1" fill="#112c2c" d="M 220.5,344.5 C 226.158,343.679 227.825,345.846 225.5,351C 219.244,351.934 217.577,349.767 220.5,344.5 Z"/></g>
<g><path style="opacity:1" fill="#ced4d4" d="M 249.5,342.5 C 254.587,342.284 255.587,344.118 252.5,348C 253.572,349.284 254.905,349.617 256.5,349C 255.788,350.425 255.621,351.925 256,353.5C 253.376,353.53 250.709,353.197 248,352.5C 248.936,349.14 249.436,345.807 249.5,342.5 Z"/></g>
<g><path style="opacity:1" fill="#1b3535" d="M 250.5,343.5 C 252.465,343.948 252.798,344.948 251.5,346.5C 250.614,345.675 250.281,344.675 250.5,343.5 Z"/></g>
<g><path style="opacity:1" fill="#1b3535" d="M 249.5,348.5 C 253.31,349.754 253.31,350.754 249.5,351.5C 249.5,350.5 249.5,349.5 249.5,348.5 Z"/></g>
<g><path style="opacity:1" fill="#dadede" d="M 286.5,342.5 C 287.376,342.369 288.043,342.702 288.5,343.5C 289.432,345.795 290.265,348.129 291,350.5C 292.381,348.365 293.381,346.032 294,343.5C 294.893,342.289 295.726,342.289 296.5,343.5C 294.892,346.382 293.559,349.382 292.5,352.5C 291.675,353.386 290.675,353.719 289.5,353.5C 288.699,349.765 287.699,346.099 286.5,342.5 Z"/></g>
<g><path style="opacity:1" fill="#dbdfdf" d="M 273.5,342.5 C 281.489,341.317 284.156,344.484 281.5,352C 271.776,354.776 269.11,351.61 273.5,342.5 Z"/></g>
<g><path style="opacity:1" fill="#0a2828" d="M 274.5,344.5 C 280.158,343.679 281.825,345.846 279.5,351C 273.741,352.139 272.074,349.972 274.5,344.5 Z"/></g>
</svg>
